<?xml version="1.0" standalone="no"?>
<!DOCTYPE svg PUBLIC "-//W3C//DTD SVG 20010904//EN"
 "http://www.w3.org/TR/2001/REC-SVG-20010904/DTD/svg10.dtd">
<svg version="1.0" xmlns="http://www.w3.org/2000/svg"
 width="1514.000000pt" height="1600.000000pt" viewBox="0 0 1514.000000 1600.000000"
 preserveAspectRatio="xMidYMid meet">

<g transform="translate(0.000000,1600.000000) scale(0.100000,-0.100000)"
fill="#7BFC21" stroke="none">
<path d="M3085 14209 c-210 -22 -403 -118 -556 -276 -103 -105 -161 -200 -211
-343 -50 -145 -48 -36 -48 -2799 0 -2484 1 -2579 19 -2667 75 -362 328 -627
691 -722 77 -20 198 -21 2178 -22 l1312 0 0 -750 0 -750 -1557 -2 -1558 -3 -3
-362 -2 -363 4030 0 4030 0 0 365 0 365 -1450 0 -1450 0 0 193 c-1 741 1 1301
4 1304 1 2 810 4 1797 6 l1794 2 80 23 c325 92 565 332 658 659 l22 78 3 2623
c2 2578 2 2624 -18 2717 -66 318 -293 577 -595 680 -152 51 175 48 -4640 50
-2453 0 -4491 -2 -4530 -6z m8950 -583 c124 -33 199 -102 239 -220 15 -42 16
-286 16 -2611 l0 -2564 -22 -58 c-29 -79 -112 -162 -191 -191 l-58 -22 -4462
2 -4462 3 -47 23 c-74 37 -131 94 -164 164 l-29 63 0 2590 0 2590 27 51 c53
101 120 155 222 180 78 19 8860 19 8931 0z"/>
<path d="M10285 12884 c-55 -7 -284 -36 -510 -64 -225 -28 -437 -55 -470 -60
-79 -11 -205 -27 -332 -41 -57 -6 -103 -15 -103 -21 0 -5 68 -98 150 -206 83
-109 150 -202 150 -207 -1 -6 -37 -35 -81 -65 -44 -30 -113 -78 -152 -106 -40
-28 -108 -75 -152 -105 -72 -50 -150 -104 -535 -372 -63 -44 -191 -134 -285
-198 l-170 -118 -5 349 -5 349 -275 -266 c-151 -147 -408 -395 -570 -552 -162
-157 -369 -358 -460 -447 -91 -88 -283 -275 -427 -415 l-263 -254 0 -222 c0
-123 3 -223 6 -223 4 0 37 26 73 58 36 31 79 69 96 83 16 15 82 71 145 126 63
55 131 113 150 130 19 17 107 93 196 170 469 403 954 824 959 833 21 34 25
-13 25 -286 l0 -296 48 34 c26 19 200 146 387 283 187 137 452 330 589 429
136 100 303 222 371 271 283 207 552 402 582 423 l32 23 38 -49 c21 -26 101
-132 178 -235 77 -103 143 -183 147 -179 7 7 36 74 221 512 53 124 161 380
241 569 80 189 146 347 146 352 0 11 -8 10 -135 -7z"/>
<path d="M4600 10520 l0 -1670 2785 1 2785 0 0 238 0 238 -102 6 c-57 4 -584
7 -1173 7 -1254 -1 -3735 10 -3752 15 -12 4 -12 13 1 2123 l5 712 -275 0 -274
0 0 -1670z"/>
<path d="M6710 2380 l0 -390 80 0 80 0 0 170 c0 223 15 263 101 263 31 0 47
-7 67 -27 l27 -26 3 -190 3 -190 80 0 79 0 0 208 c0 114 -5 224 -10 244 -23
81 -89 128 -179 128 -62 0 -89 -10 -135 -50 l-36 -32 0 141 0 141 -80 0 -80 0
0 -390z"/>
<path d="M7370 2380 l0 -390 80 0 80 0 0 34 0 35 50 -34 c185 -124 409 39 387
282 -11 114 -64 199 -152 239 -88 42 -194 28 -257 -33 l-28 -27 0 142 0 142
-80 0 -80 0 0 -390z m385 17 c126 -126 -12 -351 -156 -254 -67 44 -88 140 -49
217 25 49 61 69 124 70 41 0 53 -5 81 -33z"/>
<path d="M10260 2634 l0 -136 -22 16 c-87 63 -180 73 -269 29 -98 -51 -144
-138 -143 -273 1 -94 29 -164 89 -219 41 -38 120 -71 169 -71 42 0 97 22 130
51 19 16 36 29 40 29 3 0 6 -16 6 -35 l0 -35 80 0 80 0 0 390 0 390 -80 0 -80
0 0 -136z m-64 -223 c87 -53 84 -209 -5 -268 -40 -27 -80 -29 -123 -7 -43 22
-65 51 -78 102 -18 71 18 160 74 182 37 15 100 11 132 -9z"/>
<path d="M4740 2366 l0 -376 158 0 c99 0 182 6 226 15 174 37 284 161 294 334
10 176 -75 308 -238 372 -48 19 -80 23 -247 26 l-193 5 0 -376z m397 196 c151
-78 151 -316 0 -394 -32 -17 -65 -23 -139 -26 l-98 -4 0 227 0 227 98 -4 c74
-3 107 -9 139 -26z"/>
<path d="M5695 2564 c-55 -9 -125 -35 -125 -48 0 -10 29 -106 34 -113 1 -1 26
4 56 12 109 29 190 11 215 -47 17 -41 9 -50 -35 -38 -52 15 -152 12 -201 -5
-49 -17 -84 -47 -105 -87 -18 -36 -18 -122 1 -162 19 -40 85 -83 141 -92 52
-7 134 11 168 37 31 24 34 24 38 -3 3 -21 9 -23 81 -26 l77 -3 0 193 c0 106
-5 209 -10 229 -28 99 -101 149 -227 154 -43 2 -91 1 -108 -1z m169 -334 c52
-19 19 -99 -51 -126 -58 -22 -115 -7 -132 34 -15 35 0 74 33 90 27 14 117 15
150 2z"/>
<path d="M6294 2561 c-136 -35 -180 -213 -73 -293 19 -14 71 -38 117 -53 108
-35 130 -56 95 -90 -25 -25 -117 -15 -182 21 -58 31 -56 31 -97 -44 -18 -34
-18 -34 4 -53 80 -64 259 -85 342 -39 63 35 90 80 90 147 0 30 -7 67 -15 83
-18 34 -78 72 -160 100 -104 36 -135 73 -80 98 24 11 111 -4 155 -28 10 -6 22
-10 27 -10 8 0 63 91 63 105 0 3 -25 17 -55 31 -60 28 -174 40 -231 25z"/>
<path d="M8245 2550 c-195 -77 -249 -339 -99 -482 62 -59 125 -83 219 -83 100
1 166 28 226 92 58 63 79 114 79 195 0 117 -53 209 -151 263 -72 39 -197 46
-274 15z m193 -140 c47 -29 72 -76 72 -135 0 -153 -183 -212 -267 -86 -29 43
-31 121 -5 170 36 67 133 91 200 51z"/>
<path d="M8935 2563 c-53 -7 -125 -34 -125 -47 0 -10 29 -104 34 -113 1 -1 28
5 61 13 133 31 215 2 215 -76 0 -17 -4 -20 -17 -15 -34 14 -168 17 -213 5 -66
-18 -126 -81 -135 -142 -12 -78 20 -145 85 -178 81 -41 169 -36 244 15 l36 24
0 -30 0 -30 78 3 77 3 3 175 c1 98 -2 197 -8 225 -24 113 -95 166 -228 170
-42 1 -90 0 -107 -2z m154 -329 c28 -6 31 -10 31 -44 0 -70 -90 -117 -164 -86
-57 24 -60 103 -4 126 27 10 93 12 137 4z"/>
<path d="M9659 2549 c-20 -12 -45 -35 -55 -53 l-19 -31 -3 48 -3 47 -80 0 -79
0 0 -285 0 -286 78 3 77 3 5 150 c5 122 9 156 24 181 22 37 67 66 116 74 l35
5 3 83 3 82 -33 0 c-18 0 -49 -10 -69 -21z"/>
<path d="M0 425 l0 -425 7570 0 7570 0 0 425 0 425 -7570 0 -7570 0 0 -425z
m1589 149 c24 -30 26 -50 10 -91 -8 -22 -12 -24 -19 -13 -6 9 -10 10 -10 3 0
-18 -51 -31 -82 -21 -20 7 -30 20 -37 44 -18 64 11 104 75 104 34 0 47 -5 63
-26z m9789 -76 c21 -18 13 -47 -24 -88 l-36 -40 42 0 c65 0 45 -24 -23 -28
-70 -4 -74 10 -22 71 19 22 35 46 35 53 0 21 -22 28 -35 11 -12 -17 -45 -23
-45 -9 0 13 23 39 40 45 18 6 50 -1 68 -15z m398 12 c24 -9 26 -14 21 -49 -2
-21 0 -45 5 -54 22 -41 -41 -82 -88 -57 -25 14 -34 62 -14 75 6 4 5 13 -2 24
-18 30 -3 53 49 70 1 1 14 -4 29 -9z m297 -14 c4 -6 6 -25 3 -42 -2 -18 1 -37
7 -43 16 -16 -8 -59 -38 -67 -32 -8 -75 10 -75 31 0 17 25 21 35 5 9 -15 32
-12 39 5 4 11 -3 19 -19 25 -30 11 -32 30 -5 37 23 6 28 43 6 43 -8 0 -18 -4
-21 -10 -9 -15 -35 -12 -35 3 0 32 82 42 103 13z m133 2 c7 -5 12 -38 12 -74
0 -59 -2 -66 -23 -76 -30 -14 -72 -3 -85 22 -9 16 -8 20 5 20 8 0 24 -6 35
-12 15 -9 22 -10 31 -1 15 15 3 33 -22 33 -12 0 -19 7 -19 20 0 13 7 20 19 20
25 0 37 18 22 33 -9 9 -16 8 -31 -1 -26 -16 -40 -15 -40 3 0 31 64 39 96 13z
m142 0 c20 -17 14 -51 -18 -88 l-30 -35 36 -3 c54 -5 36 -27 -26 -30 -77 -5
-82 8 -25 69 44 48 46 52 31 67 -16 16 -18 16 -30 0 -13 -18 -46 -25 -46 -10
0 13 23 39 40 45 18 6 50 -1 68 -15z m216 8 c47 -20 63 -66 39 -115 -45 -91
-177 -42 -157 59 5 21 17 38 38 51 37 23 38 23 80 5z m409 -14 c12 -10 17 -30
17 -63 0 -39 -4 -51 -26 -68 -15 -12 -34 -21 -44 -21 -10 0 -29 9 -44 21 -22
17 -26 29 -26 68 0 80 65 114 123 63z m597 13 c30 -16 39 -38 19 -50 -6 -4
-17 2 -25 14 -33 46 -72 4 -60 -63 6 -29 11 -36 30 -36 13 0 26 7 30 15 7 19
36 20 36 1 0 -20 -39 -46 -68 -46 -36 0 -72 43 -72 85 0 45 15 73 43 85 31 12
34 12 67 -5z m304 5 c38 -14 55 -79 33 -125 -29 -61 -109 -56 -131 8 -14 39 3
99 34 114 30 15 32 15 64 3z m338 -17 c10 -9 15 -20 12 -24 -9 -15 -36 -10
-49 8 -7 9 -17 13 -23 9 -20 -12 -14 -25 21 -42 31 -17 56 -41 57 -56 0 -19
-43 -48 -70 -48 -29 0 -70 29 -70 50 0 16 37 12 44 -5 7 -19 46 -20 46 -1 0 8
-17 23 -37 33 -28 13 -39 25 -41 45 -6 52 64 72 110 31z m311 -5 c26 -31 22
-93 -8 -123 -50 -51 -125 -13 -125 62 1 81 82 119 133 61z m162 1 c15 -15 17
-21 7 -31 -9 -9 -16 -7 -32 10 -23 24 -28 26 -50 12 -14 -9 -18 -79 -5 -100 9
-15 45 -12 51 5 6 15 44 21 44 7 0 -19 -27 -42 -55 -48 -47 -9 -85 26 -85 77
0 49 14 77 43 89 28 11 56 3 82 -21z m-3795 -64 c0 -78 -2 -85 -20 -85 -18 0
-20 7 -20 85 0 78 2 85 20 85 18 0 20 -7 20 -85z m145 65 c11 -12 18 -35 18
-61 0 -54 -26 -80 -87 -86 l-46 -6 0 87 0 86 48 0 c36 0 54 -5 67 -20z m183
-62 c-3 -70 -6 -83 -20 -86 -16 -3 -18 5 -18 63 0 62 -1 66 -20 60 -29 -9 -26
23 3 35 54 22 58 17 55 -72z m312 73 c0 -6 -17 -11 -37 -13 -26 -2 -39 -8 -41
-20 -2 -12 2 -15 18 -11 27 7 60 -23 60 -55 0 -57 -61 -81 -102 -40 -26 26 -9
37 29 17 20 -11 26 -11 33 1 16 26 -7 50 -40 43 -28 -5 -30 -4 -30 25 0 54 8
62 61 62 27 0 49 -4 49 -9z m140 0 c0 -25 -72 -161 -86 -161 -18 0 -13 22 22
92 13 26 24 50 24 53 0 3 -18 5 -39 5 -22 0 -43 5 -46 10 -4 6 18 10 59 10 36
0 66 -4 66 -9z m270 0 c0 -6 -14 -11 -32 -13 -42 -4 -47 -24 -8 -31 36 -8 54
-44 40 -81 -16 -43 -79 -46 -100 -5 -9 16 -7 19 8 19 10 0 23 -5 29 -11 15
-15 33 -3 33 22 0 19 -8 23 -47 19 -21 -1 -23 3 -23 44 l0 46 50 0 c28 0 50
-4 50 -9z m890 -1 c0 -10 -3 -11 -32 -14 -9 -1 -15 -25 -18 -71 -4 -53 -9 -70
-20 -70 -11 0 -16 17 -20 70 -3 46 -9 70 -17 71 -30 3 -33 4 -33 14 0 6 30 10
70 10 40 0 70 -4 70 -10z m301 0 c27 -15 25 -64 -3 -84 -12 -9 -35 -16 -50
-16 -24 0 -28 -4 -28 -30 0 -20 -5 -30 -15 -30 -12 0 -15 16 -15 85 l0 85 46
0 c25 0 54 -5 65 -10z m87 -47 l19 -58 17 58 c13 44 22 57 37 57 24 0 24 0 -7
-92 -32 -96 -53 -104 -80 -30 -9 26 -23 62 -31 81 -16 42 -17 41 6 41 15 0 24
-14 39 -57z m232 47 c0 -9 -36 -15 -67 -11 -7 1 -13 -7 -13 -19 0 -16 6 -20
29 -20 48 0 55 -31 8 -36 -12 -1 -25 -3 -29 -3 -5 -1 -8 -10 -8 -21 0 -17 7
-20 40 -20 29 0 40 -4 40 -15 0 -12 -13 -15 -60 -15 l-60 0 0 85 0 85 60 0
c33 0 60 -4 60 -10z m310 0 c0 -10 -13 -14 -37 -11 -13 2 -22 -44 -20 -104 1
-30 -3 -41 -15 -43 -15 -3 -18 8 -20 70 -3 71 -4 73 -30 76 -58 7 -25 22 47
22 43 0 75 -4 75 -10z m300 -5 c8 -9 10 -25 5 -42 -9 -37 -9 -63 0 -90 11 -35
-21 -29 -40 7 -21 40 -45 40 -45 -1 0 -24 -4 -30 -17 -27 -15 3 -18 16 -20 86
l-3 82 54 0 c35 0 58 -5 66 -15z m320 5 c0 -5 -11 -10 -25 -10 -23 0 -24 -3
-27 -72 -2 -59 -6 -73 -20 -76 -15 -3 -18 7 -20 70 -3 68 -4 73 -25 72 -13 0
-23 5 -23 13 0 9 18 13 70 13 40 0 70 -4 70 -10z m380 -22 l0 -33 26 33 c17
21 34 32 50 32 l25 0 -30 -37 -30 -36 30 -43 c34 -50 35 -54 10 -54 -11 0 -29
15 -41 36 -24 37 -36 36 -42 -6 -2 -14 -11 -26 -20 -28 -16 -3 -18 6 -18 82 0
79 2 86 20 86 16 0 20 -7 20 -32z m-14422 -80 c2 -83 0 -98 -18 -121 -47 -59
-130 -19 -130 62 1 59 61 111 89 77 10 -11 6 -18 -19 -36 -39 -28 -40 -73 -1
-78 34 -5 41 12 41 104 0 44 3 84 7 88 19 19 28 -8 31 -96z m1066 32 c72 -1
76 -47 4 -52 -44 -3 -45 -6 -39 -68 2 -22 42 -9 51 16 13 33 36 25 33 -11 -5
-64 -74 -88 -112 -39 -17 22 -21 41 -21 105 0 82 13 104 39 68 8 -12 26 -19
45 -19z m-937 -16 c4 -10 -2 -23 -15 -33 -16 -12 -22 -29 -24 -71 -2 -41 -7
-56 -19 -58 -14 -2 -18 7 -21 50 -5 59 2 87 27 111 21 22 44 22 52 1z m146 7
c13 -5 27 -16 30 -25 7 -18 -38 -76 -58 -76 -23 0 -28 20 -9 41 15 17 15 19 1
19 -24 0 -40 -35 -27 -60 11 -21 14 -22 70 -24 28 -1 36 -5 38 -23 3 -21 0
-23 -48 -23 -65 0 -86 11 -100 56 -14 41 0 86 34 109 24 17 36 18 69 6z m204
-15 c25 -22 28 -31 28 -87 0 -53 -3 -64 -17 -67 -15 -3 -18 4 -19 35 -2 79
-28 113 -64 83 -24 -20 -17 -50 15 -68 46 -26 35 -61 -15 -48 -28 7 -55 52
-55 91 0 32 49 85 79 85 11 0 32 -11 48 -24z m183 12 c8 1 26 4 40 7 35 9 70
-25 71 -70 3 -94 1 -105 -16 -105 -16 0 -23 23 -27 85 -2 29 -8 41 -20 43 -15
3 -18 -4 -18 -46 0 -59 -7 -82 -25 -82 -17 0 -25 23 -25 75 0 48 -13 64 -35
45 -10 -8 -15 -31 -15 -66 0 -40 -4 -54 -14 -54 -17 0 -26 22 -26 65 0 70 36
122 75 110 11 -4 27 -7 35 -7z m287 1 c17 -17 4 -39 -22 -39 -19 0 -23 -7 -28
-52 -7 -59 -27 -81 -67 -76 -33 4 -32 29 3 46 23 11 27 19 27 53 0 60 54 101
87 68z m248 -80 c0 -68 -3 -84 -15 -84 -12 0 -16 16 -18 74 -3 82 2 105 21 98
8 -2 12 -29 12 -88z m181 80 c65 1 65 1 80 -34 24 -57 17 -135 -12 -135 -10 0
-14 14 -14 49 0 62 -7 81 -31 81 -15 0 -18 -9 -21 -62 -2 -48 -7 -63 -18 -63
-11 0 -16 14 -18 52 -3 52 -24 85 -42 67 -5 -5 -10 -34 -12 -64 -2 -43 -7 -56
-20 -58 -16 -3 -18 5 -18 64 0 55 4 72 21 91 12 12 26 20 31 17 5 -4 39 -6 74
-5z m252 -5 c30 -21 28 -41 -8 -76 -42 -40 -72 -19 -33 24 14 16 15 18 0 18
-28 0 -44 -44 -25 -67 6 -7 21 -13 33 -13 12 0 28 -7 35 -15 35 -42 -57 -50
-95 -9 -35 38 -34 87 4 125 33 33 56 36 89 13z m257 -9 c14 -13 25 -28 25 -34
0 -19 -35 -17 -58 3 -23 21 -24 21 -38 2 -18 -26 -18 -60 1 -76 15 -12 26 -10
57 12 28 20 45 -4 25 -35 -34 -52 -108 -41 -133 19 -39 93 54 176 121 109z
m170 0 c54 -53 17 -158 -55 -158 -51 0 -84 43 -77 102 9 78 81 108 132 56z
m165 14 c0 -6 7 -6 19 1 30 16 59 12 81 -10 16 -16 20 -33 20 -90 0 -68 -1
-70 -25 -70 -24 0 -25 2 -25 65 0 37 -4 65 -10 65 -5 0 -13 0 -17 0 -5 0 -10
-28 -13 -62 -5 -59 -7 -63 -30 -63 -24 0 -25 3 -28 63 -3 54 -6 62 -22 62 -18
0 -20 -7 -20 -64 0 -55 -3 -64 -19 -69 -11 -3 -22 -2 -25 1 -7 7 -8 167 -1
174 10 9 115 7 115 -3z m-500 -124 c17 -20 5 -45 -20 -45 -11 0 -23 7 -26 15
-6 15 11 45 26 45 4 0 13 -7 20 -15z"/>
<path d="M1490 555 c-19 -22 -8 -25 13 -3 9 10 13 18 8 18 -5 0 -14 -7 -21
-15z"/>
<path d="M1553 557 c10 -6 21 -26 26 -42 7 -21 10 -24 10 -10 1 24 -25 65 -41
65 -7 0 -4 -6 5 -13z"/>
<path d="M1517 533 c-13 -13 -7 -21 13 -16 11 3 17 9 14 14 -6 11 -18 12 -27
2z"/>
<path d="M1520 480 c-8 -5 -10 -10 -5 -10 6 0 17 5 25 10 8 5 11 10 5 10 -5 0
-17 -5 -25 -10z"/>
<path d="M11737 484 c-14 -14 -7 -35 11 -32 9 2 17 10 17 17 0 16 -18 25 -28
15z"/>
<path d="M11730 389 c0 -14 5 -19 17 -17 26 5 29 38 4 38 -15 0 -21 -6 -21
-21z"/>
<path d="M12479 479 c-17 -17 -20 -29 -16 -56 8 -47 23 -63 62 -63 41 0 65 27
65 73 0 61 -68 89 -111 46z m85 -15 c9 -23 0 -30 -19 -14 -19 16 -45 6 -45
-18 0 -29 24 -46 40 -27 15 18 31 10 23 -11 -4 -10 -16 -14 -36 -12 -35 3 -50
37 -36 76 10 27 63 31 73 6z"/>
<path d="M12896 474 c-34 -34 -7 -121 31 -98 32 20 26 114 -8 114 -4 0 -15 -7
-23 -16z"/>
<path d="M13826 474 c-34 -34 -7 -121 31 -98 27 17 30 89 4 103 -15 8 -23 7
-35 -5z"/>
<path d="M14447 478 c-22 -12 -23 -80 -2 -98 32 -27 65 20 51 74 -7 28 -26 38
-49 24z"/>
<path d="M10960 430 c0 -44 4 -60 14 -60 23 0 37 27 34 66 -2 27 -9 39 -25 45
-22 8 -23 6 -23 -51z"/>
<path d="M13057 483 c-4 -3 -7 -15 -7 -25 0 -13 8 -18 30 -18 31 0 39 17 18
38 -13 13 -31 16 -41 5z"/>
<path d="M13987 483 c-4 -3 -7 -15 -7 -25 0 -13 7 -18 25 -18 29 0 36 34 9 44
-19 7 -19 7 -27 -1z"/>
<path d="M2321 376 c-17 -20 -10 -67 12 -80 14 -8 20 -8 27 4 13 21 12 64 -2
78 -16 16 -23 15 -37 -2z"/>
</g>
</svg>
