<?xml version="1.0" standalone="no"?>
<!DOCTYPE svg PUBLIC "-//W3C//DTD SVG 20010904//EN"
 "http://www.w3.org/TR/2001/REC-SVG-20010904/DTD/svg10.dtd">
<svg version="1.0" xmlns="http://www.w3.org/2000/svg"
 width="512.000000pt" height="512.000000pt" viewBox="0 0 512.000000 512.000000"
 preserveAspectRatio="xMidYMid meet">

<g transform="translate(0.000000,512.000000) scale(0.100000,-0.100000)"
fill="#7BFC21" stroke="none">
<path d="M3692 4269 c-783 -162 -1793 -279 -2631 -305 l-223 -7 6 -136 c3 -75
10 -379 16 -676 6 -297 13 -569 16 -604 l6 -63 181 6 c928 34 1771 125 2652
286 268 48 493 94 499 101 2 2 -41 213 -95 469 -54 256 -122 579 -150 718 -49
234 -54 252 -73 251 -12 -1 -103 -19 -204 -40z m156 -71 c-3 -7 -42 -20 -89
-30 -105 -21 -107 -21 -87 -2 28 28 184 56 176 32z m-242 -47 c-11 -12 -43
-23 -93 -31 -42 -6 -84 -14 -92 -17 -13 -5 -13 -2 2 13 14 15 111 42 191 53 5
0 1 -7 -8 -18z m272 -66 c9 -39 8 -53 -2 -63 -11 -11 -15 -3 -25 47 -12 59 -7
92 9 74 4 -4 13 -30 18 -58z m-517 21 c-6 -7 -39 -19 -74 -25 -34 -7 -75 -14
-92 -17 -28 -6 -29 -5 -13 12 14 15 112 39 172 43 15 1 16 -2 7 -13z m-241
-41 c-8 -8 -55 -21 -103 -28 -82 -13 -88 -13 -73 2 14 14 109 36 171 40 17 1
17 -1 5 -14z m653 -52 c55 -249 199 -984 194 -990 -10 -9 -253 -56 -562 -108
-624 -104 -1245 -174 -1865 -209 -451 -26 -460 -26 -461 -13 0 7 -8 249 -17
539 l-17 527 50 5 c28 3 154 10 280 16 695 33 1610 144 2255 274 63 13 118 24
122 25 3 0 13 -29 21 -66z m-887 18 c-10 -11 -37 -21 -69 -25 -29 -4 -68 -9
-87 -13 -33 -5 -34 -4 -19 12 10 10 48 22 100 30 46 7 86 13 88 14 2 0 -4 -7
-13 -18z m-235 -35 c-6 -8 -37 -17 -69 -20 -31 -4 -70 -9 -87 -12 -28 -6 -29
-5 -14 11 15 16 84 31 153 34 23 1 26 -2 17 -13z m1265 -133 c-11 -27 -23 -11
-33 45 -8 42 -8 61 1 71 9 11 14 2 24 -44 7 -32 11 -64 8 -72z m-1496 103 c-9
-8 -49 -17 -95 -22 -72 -6 -79 -5 -67 9 13 15 46 21 137 25 34 2 37 0 25 -12z
m-220 -21 c-11 -13 -30 -17 -139 -29 -41 -4 -43 -3 -27 12 10 11 41 19 79 23
107 10 101 11 87 -6z m-220 -20 c-11 -13 -30 -17 -139 -29 -41 -4 -43 -3 -27
12 11 11 41 19 84 23 37 3 73 7 81 7 11 2 11 -1 1 -13z m-221 -20 c-9 -9 -45
-17 -94 -22 -73 -6 -79 -5 -67 10 8 10 34 17 65 20 118 8 113 8 96 -8z m-219
-20 c-9 -11 -33 -15 -87 -15 -66 0 -74 2 -63 15 9 11 33 15 87 15 66 0 74 -2
63 -15z m-209 -9 c-8 -10 -38 -16 -92 -18 -78 -3 -79 -2 -58 15 28 23 169 26
150 3z m-211 -11 c-9 -11 -33 -15 -87 -15 -66 0 -74 2 -63 15 9 11 33 15 87
15 66 0 74 -2 63 -15z m-160 -94 c0 -49 -4 -72 -15 -81 -13 -11 -15 -3 -15 62
0 41 3 78 7 81 17 18 23 2 23 -62z m2987 -18 c8 -41 7 -55 -3 -64 -9 -8 -15 2
-25 45 -12 54 -6 98 10 80 5 -5 13 -33 18 -61z m32 -230 c-12 -13 -15 -7 -26
47 -10 50 -10 66 0 78 10 13 14 5 25 -47 12 -51 12 -64 1 -78z m-3025 -22 c-5
-13 -8 -11 -14 9 -13 40 -11 115 3 129 10 10 13 -1 15 -55 2 -37 0 -74 -4 -83z
m3061 -75 c11 -46 11 -57 -1 -67 -16 -13 -18 -10 -32 63 -6 31 -6 50 1 57 15
15 18 10 32 -53z m-3060 -125 c-13 -14 -15 -8 -15 60 0 47 5 80 13 88 10 10
13 -2 15 -60 2 -55 -1 -76 -13 -88z m3092 -108 c-13 -14 -16 -9 -26 36 -14 66
-14 74 2 90 10 10 15 0 26 -49 11 -54 11 -64 -2 -77z m-3077 -78 c-7 -8 -16
-12 -21 -9 -14 8 -11 128 4 143 18 18 35 -112 17 -134z m3115 -19 c11 -47 11
-57 -1 -67 -18 -15 -18 -15 -32 50 -9 41 -9 57 -1 68 16 18 19 13 34 -51z
m-3120 -185 c-13 -14 -15 -8 -15 60 0 47 5 80 13 88 10 10 13 -2 15 -60 2 -55
-1 -76 -13 -88z m3148 53 c6 -31 5 -32 -44 -41 -48 -10 -49 -10 -33 8 10 11
23 19 31 19 7 0 13 6 13 13 0 12 21 40 25 34 1 -1 5 -16 8 -33z m-143 -49
c-14 -13 -139 -45 -178 -45 -61 0 99 53 178 59 13 1 13 -1 0 -14z m-249 -49
c-7 -8 -42 -19 -79 -26 -37 -6 -78 -14 -92 -17 -24 -5 -24 -5 -8 12 15 16 111
40 172 44 15 1 16 -2 7 -13z m-2731 -64 c0 -56 -4 -72 -20 -87 -20 -18 -20
-17 -20 56 0 70 10 99 32 99 4 0 8 -31 8 -68z m2489 23 c-13 -14 -177 -50
-186 -41 -11 10 34 29 99 40 103 19 106 19 87 1z m-239 -39 c-14 -14 -116 -36
-164 -36 -44 0 7 25 72 36 101 17 109 17 92 0z m-237 -35 c-14 -12 -47 -21
-89 -26 -37 -4 -75 -9 -83 -12 -14 -5 -13 -3 1 12 12 13 45 23 100 30 46 7 85
13 88 13 3 1 -5 -7 -17 -17z m-231 -33 c-7 -7 -51 -18 -98 -23 -75 -10 -83 -9
-69 4 14 15 74 27 145 30 27 1 32 -2 22 -11z m-231 -28 c-13 -11 -36 -20 -51
-20 -15 0 -49 -3 -76 -6 -44 -6 -47 -5 -34 9 9 9 47 19 95 25 44 5 82 10 85
10 3 1 -6 -8 -19 -18z m-1525 -100 c14 0 22 -4 19 -10 -3 -5 -22 -10 -41 -10
-33 0 -34 1 -34 43 0 24 6 49 13 56 10 10 13 3 15 -33 3 -42 6 -46 28 -46z
m1304 76 c-9 -9 -47 -18 -95 -22 -73 -7 -79 -6 -67 9 8 10 34 17 65 20 118 8
113 8 97 -7z m-220 -20 c-9 -9 -47 -18 -95 -22 -73 -7 -79 -6 -67 9 9 10 34
17 70 20 31 2 68 4 82 5 21 2 22 0 10 -12z m-220 -20 c-9 -8 -49 -17 -94 -20
-70 -6 -78 -5 -67 8 12 14 46 20 136 24 34 2 37 0 25 -12z m-212 -12 c-12 -12
-41 -18 -95 -22 -71 -4 -77 -3 -65 11 10 12 35 17 90 20 43 1 79 4 82 5 2 1
-3 -5 -12 -14z m-218 -19 c-9 -11 -33 -15 -87 -15 -66 0 -74 2 -63 15 9 11 33
15 87 15 66 0 74 -2 63 -15z m-210 -10 c-9 -11 -33 -15 -87 -15 -66 0 -74 2
-63 15 9 11 33 15 87 15 66 0 74 -2 63 -15z"/>
<path d="M3300 3929 c-85 -15 -285 -46 -445 -69 -159 -22 -294 -42 -300 -44
-5 -2 42 -28 106 -59 96 -46 124 -65 170 -114 123 -133 161 -314 100 -473 -36
-95 -87 -152 -241 -272 l-35 -27 35 5 c233 31 502 71 713 106 l257 43 0 58 c0
32 7 71 15 86 21 42 71 80 121 92 35 9 44 16 44 33 -1 11 -22 129 -48 260
l-47 239 -70 1 c-57 1 -76 6 -104 25 -33 24 -70 89 -71 124 0 22 -7 21 -200
-14z m157 -108 c35 -56 101 -99 171 -112 25 -5 47 -10 49 -12 2 -3 73 -353 73
-364 0 -2 -6 -3 -13 -3 -23 0 -87 -50 -117 -91 -16 -22 -34 -64 -41 -93 l-12
-53 -226 -37 c-257 -42 -405 -64 -409 -61 -1 1 14 29 33 61 51 85 75 170 75
268 0 152 -50 275 -156 383 -34 35 -59 63 -55 63 25 0 593 94 597 99 1 1 15
-21 31 -48z"/>
<path d="M3225 3631 c-160 -74 -166 -283 -11 -363 59 -30 159 -23 214 16 44
30 92 111 92 155 0 150 -161 254 -295 192z m140 -77 c118 -56 74 -224 -58
-224 -133 0 -171 164 -52 225 38 19 69 19 110 -1z"/>
<path d="M2102 3770 c-96 -10 -280 -25 -410 -34 -130 -9 -265 -19 -298 -22
l-61 -5 -6 -55 c-9 -91 -63 -145 -155 -157 -24 -3 -45 -7 -46 -9 -2 -1 2 -121
7 -265 l10 -263 46 0 c55 0 126 -33 154 -71 11 -15 23 -48 28 -74 5 -27 11
-50 13 -52 8 -9 745 48 956 73 l54 7 -112 53 c-86 41 -124 65 -167 108 -101
101 -148 243 -126 380 23 136 79 225 210 328 90 71 98 78 86 77 -6 -1 -88 -10
-183 -19z m-78 -102 c-4 -7 -20 -32 -36 -55 -16 -24 -41 -73 -55 -110 -24 -60
-27 -82 -27 -183 0 -94 4 -126 22 -175 27 -72 103 -187 144 -216 16 -12 26
-25 21 -29 -7 -7 -250 -28 -539 -46 l-102 -7 -12 37 c-22 69 -103 132 -207
162 -9 2 -13 28 -13 82 0 43 -3 126 -6 183 l-6 104 48 19 c63 25 119 83 141
145 20 59 -16 51 353 77 129 9 237 18 239 20 2 2 13 4 23 4 13 0 17 -4 12 -12z"/>
<path d="M1530 3428 c-25 -14 -58 -44 -75 -67 -26 -37 -30 -51 -30 -110 0 -58
4 -74 29 -109 18 -26 47 -51 79 -67 227 -113 424 194 218 340 -34 24 -54 30
-109 33 -56 3 -74 0 -112 -20z m168 -78 c66 -40 76 -125 20 -180 -56 -57 -151
-47 -195 19 -29 43 -29 79 0 122 41 61 113 77 175 39z"/>
<path d="M2335 3742 c-235 -81 -365 -320 -296 -543 58 -184 221 -299 425 -299
190 0 341 93 419 258 30 62 32 75 32 172 0 97 -2 110 -32 172 -55 116 -152
201 -274 239 -78 24 -205 25 -274 1z m300 -101 c176 -87 252 -290 171 -455
-33 -67 -109 -139 -184 -174 -50 -24 -69 -27 -157 -27 -87 0 -107 3 -156 26
-112 53 -190 157 -204 273 -14 112 47 251 143 321 111 82 264 96 387 36z"/>
<path d="M2477 3664 c-4 -4 -7 -18 -7 -31 0 -20 -5 -23 -39 -23 -31 0 -41 4
-46 20 -3 11 -15 20 -26 20 -14 0 -19 -7 -19 -29 0 -23 -8 -34 -34 -50 -95
-59 -79 -185 29 -231 l42 -18 7 -79 c4 -43 9 -91 12 -106 6 -27 5 -28 -18 -16
-12 6 -35 26 -49 43 -23 26 -29 29 -43 17 -9 -7 -16 -19 -16 -27 0 -25 62 -84
100 -95 31 -9 40 -17 42 -38 4 -35 38 -42 38 -8 0 19 6 26 31 31 50 10 57 7
61 -16 5 -36 32 -28 36 10 2 17 8 32 14 32 19 0 78 50 93 80 8 16 15 49 15 74
0 62 -41 109 -109 127 l-49 12 -7 71 c-3 39 -9 81 -12 94 -7 30 17 29 47 -3
27 -29 63 -30 68 -2 5 25 -49 74 -91 82 -29 6 -36 12 -39 33 -3 26 -18 38 -31
26z m4 -155 c3 -24 9 -66 12 -92 l7 -49 -43 7 c-23 4 -43 8 -43 9 -1 0 -5 38
-9 83 l-7 81 29 5 c44 6 48 3 54 -44z m-126 -1 c2 -7 6 -37 10 -66 l6 -53 -31
16 c-29 15 -35 28 -31 69 3 36 37 61 46 34z m146 -207 c4 -3 11 -46 18 -95 12
-100 9 -108 -44 -104 -29 3 -30 5 -37 68 -4 36 -10 84 -13 107 l-6 42 38 -6
c21 -3 41 -8 44 -12z m121 -38 c30 -27 23 -80 -14 -116 l-32 -32 -7 40 c-3 22
-9 64 -13 92 l-7 53 28 -11 c15 -6 36 -18 45 -26z"/>
<path d="M3891 2634 c-25 -9 -61 -26 -81 -39 l-37 -24 -48 25 c-36 18 -65 24
-110 24 -116 0 -182 -48 -399 -290 -110 -123 -221 -218 -263 -226 -64 -12
-157 4 -285 50 -258 91 -448 124 -618 105 -92 -10 -145 -25 -370 -104 -108
-38 -296 -85 -340 -85 -25 0 -25 0 -22 79 3 75 2 81 -26 112 -39 43 -72 47
-442 48 -330 1 -332 1 -349 -67 -46 -183 -49 -1326 -5 -1721 8 -63 47 -115 98
-130 23 -6 123 0 326 20 330 32 340 35 379 112 23 46 23 49 12 191 -6 79 -11
156 -11 170 l0 26 116 0 116 0 144 -60 c260 -108 478 -176 653 -204 92 -15 95
-15 243 14 271 54 612 146 988 267 238 76 305 107 369 171 39 41 624 888 673
976 42 76 12 180 -64 221 -35 18 -36 21 -35 75 0 81 -46 153 -116 179 -40 16
-117 14 -167 -4 -52 -18 -50 -18 -50 -1 0 23 -51 78 -87 92 -43 18 -137 17
-192 -2z m184 -89 c14 -13 25 -31 25 -39 0 -7 -24 -29 -52 -47 -78 -50 -193
-143 -275 -222 l-72 -69 -38 13 c-21 7 -62 17 -91 23 l-52 11 80 92 c91 104
211 205 285 239 71 34 157 33 190 -1z m-396 -14 c15 -8 4 -24 -79 -108 -53
-54 -115 -123 -138 -154 -42 -55 -43 -56 -112 -68 -39 -6 -99 -22 -135 -36
l-65 -24 149 162 c169 185 172 187 226 216 42 22 123 28 154 12z m709 -76 c34
-28 46 -64 37 -106 -5 -24 -15 -30 -59 -43 -138 -40 -408 -310 -628 -627 l-83
-119 -60 0 -60 0 60 36 c104 62 179 146 211 238 30 84 15 215 -31 266 -13 14
-9 21 33 61 110 106 264 227 325 256 18 8 52 26 77 39 64 33 138 33 178 -1z
m120 -235 c31 -19 37 -36 32 -85 -2 -18 -580 -879 -641 -954 -52 -65 -115 -99
-288 -155 -523 -172 -1132 -325 -1234 -310 -169 25 -419 102 -657 202 l-155
66 -132 4 -132 4 -7 66 c-7 72 2 794 12 878 l6 50 109 18 c67 11 175 41 281
78 277 95 298 100 433 101 155 1 253 -18 476 -94 107 -36 201 -62 241 -66 86
-8 243 19 378 64 224 75 440 49 496 -58 43 -85 4 -222 -89 -305 -114 -102
-248 -141 -542 -155 -115 -5 -230 -14 -255 -20 -25 -6 -101 -41 -170 -79 -69
-38 -156 -81 -195 -95 -38 -15 -76 -32 -83 -37 -17 -14 -12 -48 10 -61 23 -15
150 36 311 125 l128 71 122 8 c163 11 357 12 555 3 189 -8 174 -14 254 105
205 301 481 592 605 637 54 19 93 17 131 -6z m-3283 -3 c17 -13 17 -23 4 -238
-18 -289 -18 -951 0 -1211 12 -180 12 -200 -3 -222 -19 -31 -16 -30 -346 -61
l-265 -26 -21 24 c-23 27 -23 26 -45 402 -14 232 -7 987 12 1198 l12 147 317
0 c249 0 320 -3 335 -13z"/>
<path d="M836 1024 c-11 -11 -16 -35 -16 -79 0 -54 -3 -65 -19 -70 -31 -10
-79 -71 -87 -110 -9 -49 19 -119 58 -147 44 -31 123 -35 166 -9 96 61 95 203
-1 256 -37 20 -37 20 -37 87 0 56 -3 69 -19 78 -25 13 -27 13 -45 -6z m68
-235 c32 -25 35 -70 5 -100 -46 -46 -133 5 -112 67 9 27 43 54 69 54 6 0 23
-9 38 -21z"/>
</g>
</svg>
