<?xml version="1.0" standalone="no"?>
<!DOCTYPE svg PUBLIC "-//W3C//DTD SVG 20010904//EN"
 "http://www.w3.org/TR/2001/REC-SVG-20010904/DTD/svg10.dtd">
<svg version="1.0" xmlns="http://www.w3.org/2000/svg"
 width="360.000000pt" height="360.000000pt" viewBox="0 0 360.000000 360.000000"
 preserveAspectRatio="xMidYMid meet">

<g transform="translate(0.000000,360.000000) scale(0.100000,-0.100000)"
fill="#7BFC21" stroke="none">
<path d="M2583 3010 c-434 -46 -759 -434 -729 -870 3 -52 9 -108 13 -124 5
-27 8 -28 46 -22 23 4 43 9 45 10 2 2 -1 30 -7 62 -69 374 179 749 557 841 88
21 247 21 337 -1 382 -92 628 -479 549 -864 -41 -200 -178 -388 -357 -491
-109 -62 -188 -83 -334 -88 -128 -5 -133 -6 -133 -27 0 -11 -3 -31 -6 -43 -5
-19 -2 -21 53 -25 529 -36 957 431 872 952 -70 434 -467 736 -906 690z"/>
<path d="M2540 2795 c-204 -45 -379 -202 -452 -405 -20 -57 -23 -83 -23 -207
0 -78 3 -144 6 -147 3 -4 24 -3 45 2 l39 8 -4 107 c-4 126 8 186 57 282 86
168 276 285 461 285 238 0 447 -158 515 -389 23 -78 21 -213 -4 -292 -52 -167
-166 -286 -330 -347 -51 -20 -86 -25 -162 -26 l-96 -1 -5 -40 c-2 -22 -2 -42
0 -44 10 -13 129 -11 201 2 237 45 426 223 487 458 24 91 17 260 -14 349 -64
184 -217 333 -401 391 -85 27 -233 34 -320 14z"/>
<path d="M2593 2590 c-118 -24 -228 -111 -285 -227 -31 -63 -33 -74 -33 -169
0 -56 3 -105 7 -109 4 -4 24 -4 46 0 l39 6 -5 73 c-10 162 77 286 233 331 75
22 141 15 222 -25 233 -115 231 -446 -3 -561 -55 -27 -78 -33 -134 -33 l-68
-1 -4 -42 c-3 -41 -3 -42 33 -48 20 -4 65 -1 100 5 132 24 242 108 302 229 30
61 32 73 32 171 0 99 -2 109 -33 173 -85 172 -265 263 -449 227z"/>
<path d="M2642 2319 c-65 -14 -107 -76 -99 -146 12 -113 158 -159 231 -72 84
100 -4 246 -132 218z"/>
<path d="M2385 1965 c-152 -80 -158 -84 -131 -94 15 -6 33 -11 41 -11 8 0 17
-5 20 -10 4 -6 -72 -101 -167 -213 -96 -111 -226 -263 -290 -338 l-117 -136
29 -21 28 -21 291 340 292 340 20 -46 c11 -26 22 -45 25 -43 5 6 124 332 121
334 -1 1 -74 -36 -162 -81z"/>
<path d="M1086 1589 c-43 -37 -54 -81 -33 -132 20 -47 60 -72 115 -72 38 0 48
5 78 37 101 111 -47 266 -160 167z m124 -39 c29 -29 26 -74 -6 -99 -35 -27
-59 -26 -89 4 -30 30 -31 54 -4 89 25 32 70 35 99 6z"/>
<path d="M1276 1404 l-19 -26 139 -139 c76 -76 141 -139 144 -139 3 0 14 12
24 27 l19 26 -139 138 c-76 76 -141 138 -144 138 -3 0 -13 -11 -24 -25z"/>
<path d="M1012 1232 c-33 -81 -68 -164 -76 -184 l-16 -37 31 -16 c17 -9 32
-15 33 -13 1 2 17 39 35 83 19 44 53 126 76 181 l43 101 -33 16 -32 15 -61
-146z"/>
<path d="M402 1184 c-40 -21 -62 -60 -62 -111 0 -45 20 -77 60 -98 97 -50 201
39 167 142 -22 67 -101 99 -165 67z m96 -51 c71 -60 -10 -161 -86 -107 -15 10
-22 25 -22 47 0 37 7 49 35 65 28 16 50 15 73 -5z"/>
<path d="M1601 1114 c-56 -47 -60 -123 -10 -173 75 -76 199 -22 199 86 0 97
-115 150 -189 87z m123 -43 c25 -28 17 -79 -16 -104 -23 -17 -31 -18 -56 -8
-26 11 -52 46 -52 70 0 5 9 20 21 35 25 32 77 36 103 7z"/>
<path d="M591 1009 c-7 -16 -12 -31 -10 -33 2 -2 38 -21 79 -44 l75 -41 13 27
c6 14 12 29 12 33 0 7 -141 89 -151 89 -2 0 -10 -14 -18 -31z"/>
<path d="M218 801 l-118 -176 23 -17 c12 -10 27 -18 32 -18 8 0 223 313 233
340 2 4 -10 17 -25 27 l-28 20 -117 -176z"/>
<path d="M830 963 c-41 -21 -60 -54 -60 -106 0 -135 194 -159 229 -29 28 99
-77 182 -169 135z m98 -50 c35 -30 38 -68 8 -97 -47 -47 -116 -24 -116 40 0
63 62 96 108 57z"/>
</g>
</svg>
