<?xml version="1.0" standalone="no"?>
<!DOCTYPE svg PUBLIC "-//W3C//DTD SVG 20010904//EN"
 "http://www.w3.org/TR/2001/REC-SVG-20010904/DTD/svg10.dtd">
<svg version="1.0" xmlns="http://www.w3.org/2000/svg"
 width="512.000000pt" height="512.000000pt" viewBox="0 0 512.000000 512.000000"
 preserveAspectRatio="xMidYMid meet">

<g transform="translate(0.000000,512.000000) scale(0.100000,-0.100000)"
fill="#7BFC21" stroke="none">
<path d="M403 4394 c-61 -22 -136 -93 -164 -156 l-24 -53 0 -1625 0 -1625 24
-53 c14 -31 43 -70 73 -97 85 -76 87 -76 574 -73 423 3 430 3 471 26 57 30
105 80 134 138 20 42 24 68 27 181 l4 132 437 3 c314 3 444 7 464 16 25 10 35
8 86 -17 331 -168 961 -253 1631 -222 315 15 692 52 715 71 9 7 24 27 33 44
15 28 17 90 17 676 0 691 0 688 -51 757 -50 66 -81 76 -258 84 -89 4 -176 13
-195 20 -19 7 -87 44 -150 82 -222 135 -535 274 -883 392 -279 95 -366 118
-427 112 -56 -6 -182 -60 -238 -103 l-33 -25 0 228 c0 125 -5 261 -10 301 -19
143 -83 238 -189 279 -41 16 -94 18 -497 21 l-452 3 -4 142 c-3 124 -6 148
-27 191 -29 58 -77 108 -134 138 -42 23 -46 23 -477 25 -367 2 -442 -1 -477
-13z m817 -379 l0 -105 -355 0 -355 0 0 105 0 105 355 0 355 0 0 -105z m1187
-361 c15 -11 37 -38 48 -60 19 -38 20 -62 23 -748 l3 -708 -23 5 c-13 2 -85
21 -160 41 -209 54 -347 77 -513 83 -229 9 -362 -24 -442 -108 -56 -59 -94
-193 -74 -265 41 -154 253 -302 621 -435 l95 -34 -734 -3 c-404 -1 -736 -1
-738 1 -2 2 -2 114 -1 249 l3 244 33 -8 32 -9 0 -74 0 -75 90 0 90 0 0 74 0
75 61 17 c206 58 331 264 289 476 -29 148 -118 241 -280 294 l-65 21 -2 169
-3 169 30 -32 c26 -29 36 -52 54 -134 l6 -26 87 14 c49 7 103 16 122 19 l34 5
-6 52 c-4 29 -23 84 -42 124 -51 102 -129 166 -239 194 -45 11 -46 12 -46 50
l0 39 -90 0 -90 0 0 -39 c0 -32 -4 -40 -22 -45 -49 -13 -48 -18 -48 204 l0
210 934 -2 c926 -3 935 -3 963 -24z m-1827 -754 c0 -77 -4 -140 -9 -140 -4 0
-20 9 -35 21 -25 20 -26 24 -26 119 0 95 1 99 26 119 15 12 31 21 35 21 5 0 9
-63 9 -140z m-31 -381 l31 -11 0 -189 c0 -104 -4 -189 -8 -189 -5 0 -20 13
-35 28 l-27 28 0 172 c0 95 2 172 4 172 1 0 17 -5 35 -11z m298 -129 c51 -74
14 -206 -69 -251 -17 -9 -18 1 -18 157 l0 166 32 -19 c18 -11 43 -34 55 -53z
m373 -1295 l0 -95 -355 0 -355 0 0 95 0 95 355 0 355 0 0 -95z"/>
</g>
</svg>
