<?xml version="1.0" encoding="UTF-8"?>
<!DOCTYPE svg PUBLIC "-//W3C//DTD SVG 1.1//EN" "http://www.w3.org/Graphics/SVG/1.1/DTD/svg11.dtd">
<!-- Creator: CorelDRAW -->
<svg xmlns="http://www.w3.org/2000/svg" xml:space="preserve" width="2048px" height="2048px" style="shape-rendering:geometricPrecision; text-rendering:geometricPrecision; image-rendering:optimizeQuality; fill-rule:evenodd; clip-rule:evenodd"
viewBox="0 0 2048 2048"
 xmlns:xlink="http://www.w3.org/1999/xlink">
 <defs>
  <style type="text/css">
   <![CDATA[
    .fil2 {fill:none}
    .fil0 {fill:#212121;fill-rule:nonzero}
    .fil1 {fill:#66BB6A;fill-rule:nonzero}
   ]]>
  </style>
 </defs>
 <g id="Layer_x0020_1">
  <metadata id="CorelCorpID_0Corel-Layer"/>
  <path class="fil0" d="M1608.5 1792c13.2543,0 24,-10.7457 24,-24 0,-13.2543 -10.7457,-24 -24,-24l-1162.61 0c-27.9343,0 -53.3504,-11.4461 -71.7898,-29.8855 -18.4382,-18.4394 -29.8855,-43.8544 -29.8855,-71.7886l0 -1338.33 1118.27 0 0 1102.98c0,13.2543 10.7457,24 24,24 13.2543,0 24,-10.7457 24,-24l0 -1126.98c0,-13.2543 -10.7457,-24 -24,-24l-1166.27 0c-13.2543,0 -24,10.7457 -24,24l0 1362.33c0,41.1851 16.8331,78.6107 43.9477,105.726 27.1169,27.1169 64.5426,43.9477 105.728,43.9477l1162.61 0z"/>
  <path class="fil0" d="M585.514 1406.06c0,-13.2543 -10.7457,-24 -24,-24 -13.2543,0 -24,10.7457 -24,24l0 241.297c0,26.5512 -10.8815,50.7107 -28.4103,68.2382 -17.5288,17.5288 -41.687,28.4103 -68.2394,28.4103 -26.5524,0 -50.7107,-10.8815 -68.2394,-28.4091 -17.5276,-17.5288 -28.4091,-41.687 -28.4091,-68.2394l0 -241.297c0,-13.2543 -10.7457,-24 -24,-24 -13.2543,0 -24,10.7457 -24,24l0 241.297c0,39.8032 16.2673,75.9721 42.4713,102.177 26.2051,26.204 62.3741,42.4713 102.177,42.4713 39.8032,0 75.9721,-16.2673 102.177,-42.4725 26.2063,-26.204 42.4725,-62.3741 42.4725,-102.176l0 -241.297z"/>
  <path class="fil0" d="M561.514 1382.05c-13.2543,0 -24,10.7457 -24,24 0,13.2543 10.7457,24 24,24l1166.27 0c13.2543,0 24,-10.7457 24,-24 0,-13.2543 -10.7457,-24 -24,-24l-1166.27 0z"/>
  <path class="fil0" d="M1751.79 1406.06c0,-13.2543 -10.7457,-24 -24,-24 -13.2543,0 -24,10.7457 -24,24l0 241.297c0,26.5512 -10.8815,50.7107 -28.4103,68.2382 -17.5276,17.5288 -41.6859,28.4103 -68.2382,28.4103 -13.2543,0 -24,10.7457 -24,24 0,13.2543 10.7457,24 24,24 39.8032,0 75.9721,-16.2662 102.176,-42.4725 26.2063,-26.204 42.4725,-62.3741 42.4725,-102.176l0 -241.297z"/>
  <polygon class="fil1" points="480.741,859.246 1325.96,859.246 1325.96,907.246 480.741,907.246 "/>
  <polygon class="fil1" points="480.741,1040.22 1325.96,1040.22 1325.96,1088.22 480.741,1088.22 "/>
  <polygon class="fil1" points="480.741,1221.19 1325.96,1221.19 1325.96,1269.19 480.741,1269.19 "/>
  <path class="fil1" d="M1237.76 767.999l0 -35.8453c-17.9563,-2.2441 -32.511,-6.25749 -43.7339,-12.0378 -11.2228,-5.7815 -20.9492,-15.1677 -29.1118,-28.0229 -8.16142,-12.9236 -12.9225,-28.6358 -14.2146,-47.204l36.0485 -6.80197c2.78858,19.2496 7.68544,33.3969 14.7591,42.4429 10.0665,12.7866 22.174,19.8603 36.2528,21.2894l0 -114.132c-14.7591,-2.78858 -29.791,-8.50158 -45.2303,-17.1402 -11.4272,-6.39331 -20.2016,-15.2351 -26.3906,-26.5264 -6.18898,-11.2902 -9.2504,-24.078 -9.2504,-38.4284 0,-25.5071 9.04607,-46.1835 27.0709,-61.963 12.1063,-10.6795 30.0626,-17.1402 53.8004,-19.5213l0 -17.1402 21.1536 0 0 17.1402c20.8134,1.97244 37.4091,8.0941 49.5839,18.2965 15.7122,12.991 25.0984,30.8799 28.2945,53.5973l-37.0689 5.57717c-2.10827,-14.0799 -6.52914,-24.8941 -13.2626,-32.3764 -6.66615,-7.48111 -15.848,-12.4465 -27.5469,-14.8276l0 103.386c18.0236,4.5567 29.9953,8.0941 35.8441,10.611 11.1555,4.89685 20.2689,10.8815 27.2752,17.8878 7.07363,7.07363 12.515,15.4394 16.2555,25.0984 3.80906,9.72639 5.713,20.2004 5.713,31.4906 0,24.8941 -7.95709,45.5717 -23.7378,62.1674 -15.7795,16.6642 -36.2528,25.5059 -61.35,26.7307l0 36.2528 -21.1536 0zm0 -314.032c-13.9429,2.10827 -24.9614,7.68544 -32.9882,16.7315 -8.0256,9.04607 -12.0378,19.7256 -12.0378,32.1047 0,12.1748 3.4004,22.4445 10.2697,30.6744 6.8693,8.22993 18.4323,14.8276 34.7563,19.7256l0 -99.2363zm21.1536 247.852c13.9429,-1.70079 25.4374,-7.75394 34.552,-18.0933 9.11457,-10.3382 13.6713,-23.1933 13.6713,-38.4969 0,-12.991 -3.26457,-23.4662 -9.65788,-31.3559 -6.46182,-7.88977 -19.3169,-14.9634 -38.5654,-21.2209l0 109.167z"/>
  <polygon class="fil1" points="480.741,680 1024,680 1024,728 480.741,728 "/>
  <polygon class="fil1" points="480.741,500.755 1024,500.755 1024,548.755 480.741,548.755 "/>
 </g>
 <rect class="fil2" width="2048" height="2048"/>
</svg>
