<?xml version="1.0" standalone="no"?>
<!DOCTYPE svg PUBLIC "-//W3C//DTD SVG 20010904//EN"
 "http://www.w3.org/TR/2001/REC-SVG-20010904/DTD/svg10.dtd">
<svg version="1.0" xmlns="http://www.w3.org/2000/svg"
 width="512.000000pt" height="512.000000pt" viewBox="0 0 512.000000 512.000000"
 preserveAspectRatio="xMidYMid meet">

<g transform="translate(0.000000,512.000000) scale(0.100000,-0.100000)"
fill="#7BFC21" stroke="none">
<path d="M2490 4938 c-33 -17 -51 -35 -68 -68 l-22 -45 2 -1161 3 -1161 29
-37 c68 -90 190 -86 260 8 21 27 21 31 21 1204 l0 1177 -24 34 c-26 36 -90 70
-131 71 -14 0 -46 -10 -70 -22z"/>
<path d="M3840 4397 l0 -194 88 -78 c578 -514 825 -1269 662 -2020 -162 -743
-752 -1358 -1490 -1554 -343 -91 -707 -94 -1045 -9 -591 149 -1093 556 -1361
1103 -356 730 -259 1590 253 2222 73 90 306 323 324 323 5 0 9 87 9 195 0 107
-2 195 -5 195 -14 0 -163 -107 -242 -174 -106 -89 -279 -265 -356 -363 -502
-636 -649 -1495 -386 -2260 124 -361 305 -650 579 -923 364 -365 824 -596
1345 -676 167 -25 522 -26 690 0 252 38 479 109 710 221 249 121 434 254 640
460 205 205 338 390 460 640 112 231 182 454 221 710 25 167 26 513 1 680
-101 674 -465 1258 -1024 1646 l-73 50 0 -194z"/>
</g>
</svg>
