<?xml version="1.0" standalone="no"?>
<!DOCTYPE svg PUBLIC "-//W3C//DTD SVG 20010904//EN"
 "http://www.w3.org/TR/2001/REC-SVG-20010904/DTD/svg10.dtd">
<svg version="1.0" xmlns="http://www.w3.org/2000/svg"
 width="900.000000pt" height="600.000000pt" viewBox="0 0 900.000000 600.000000"
 preserveAspectRatio="xMidYMid meet">

<g transform="translate(0.000000,600.000000) scale(0.100000,-0.100000)"
fill="#000000" stroke="none">
<path d="M4280 5794 c-286 -26 -595 -100 -840 -201 -636 -262 -1146 -740
-1450 -1358 -133 -270 -215 -529 -262 -826 -32 -206 -32 -608 0 -814 50 -319
132 -576 273 -855 376 -745 1065 -1285 1874 -1469 237 -54 344 -65 630 -65
217 0 283 4 400 22 619 96 1153 369 1587 808 429 435 693 969 785 1589 27 183
24 591 -5 780 -51 325 -132 579 -280 869 -410 805 -1182 1361 -2082 1497 -131
19 -513 33 -630 23z m455 -1123 c314 -77 568 -297 692 -601 167 -407 32 -896
-319 -1160 -369 -278 -847 -278 -1216 0 -309 233 -455 644 -363 1025 83 341
348 621 686 722 156 47 363 53 520 14z m-53 -2281 c208 -20 439 -84 628 -172
392 -184 732 -525 911 -915 l38 -83 -87 -77 c-399 -351 -833 -549 -1367 -625
-118 -17 -493 -16 -610 0 -297 43 -576 127 -807 243 -181 91 -401 240 -561
383 l-86 77 34 74 c331 726 1109 1173 1907 1095z"/>
</g>
</svg>
